# MagicaVoxel @ Ephtracy

# group
o 

# material
mtllib tile.mtl
usemtl palette

# normals
vn -1 0 0
vn 1 0 0
vn 0 0 1
vn 0 0 -1
vn 0 -1 0
vn 0 1 0

# texcoords
vt 0.583984 0.5
vt 0.865234 0.5
vt 0.869141 0.5

# verts
v -0.5 0 0.5
v -0.5 0 -0.5
v -0.5 0.3 0.5
v -0.5 0.3 0.3
v -0.5 0.3 0.2
v -0.5 0.3 -0.5
v -0.5 0.4 0.4
v -0.5 0.4 0.3
v -0.5 0.4 0.2
v -0.5 0.4 -0.1
v -0.5 0.4 -0.2
v -0.5 0.4 -0.4
v -0.5 0.5 0.5
v -0.5 0.5 0.4
v -0.5 0.5 -0.1
v -0.5 0.5 -0.2
v -0.5 0.5 -0.4
v -0.5 0.5 -0.5
v -0.5 1 0.5
v -0.5 1 -0.5
v 0.5 0 0.5
v 0.5 0 -0.5
v 0.5 0.3 0.5
v 0.5 0.3 -0.5
v 0.5 0.4 0.3
v 0.5 0.4 0.2
v 0.5 0.4 0
v 0.5 0.4 -0.1
v 0.5 0.4 -0.3
v 0.5 0.4 -0.4
v 0.5 0.5 0.4
v 0.5 0.5 0.3
v 0.5 0.5 0.2
v 0.5 0.5 0
v 0.5 0.5 -0.2
v 0.5 0.5 -0.3
v 0.5 0.5 -0.4
v 0.5 0.5 -0.5
v 0.5 0.6 0.5
v 0.5 0.6 0.4
v 0.5 0.6 -0.1
v 0.5 0.6 -0.2
v 0.5 1 0.5
v 0.5 1 -0.5
v -0.5 0 0.5
v -0.5 0.3 0.5
v -0.5 0.5 0.5
v -0.5 1 0.5
v -0.4 0.4 0.5
v -0.4 0.5 0.5
v -0.3 0.4 0.5
v -0.3 0.6 0.5
v -0.2 0.5 0.5
v -0.2 0.6 0.5
v 0 0.4 0.5
v 0 0.5 0.5
v 0.2 0.4 0.5
v 0.2 0.5 0.5
v 0.4 0.5 0.5
v 0.4 0.6 0.5
v 0.5 0 0.5
v 0.5 0.3 0.5
v 0.5 0.6 0.5
v 0.5 1 0.5
v -0.5 0 -0.5
v -0.5 0.3 -0.5
v -0.5 0.5 -0.5
v -0.5 1 -0.5
v -0.4 0.4 -0.5
v -0.4 0.5 -0.5
v -0.3 0.4 -0.5
v -0.3 0.5 -0.5
v -0.2 0.5 -0.5
v -0.2 0.6 -0.5
v -0.1 0.4 -0.5
v -0.1 0.6 -0.5
v 0 0.4 -0.5
v 0 0.5 -0.5
v 0.2 0.5 -0.5
v 0.2 0.6 -0.5
v 0.3 0.4 -0.5
v 0.3 0.6 -0.5
v 0.4 0.4 -0.5
v 0.4 0.5 -0.5
v 0.5 0 -0.5
v 0.5 0.3 -0.5
v 0.5 0.5 -0.5
v 0.5 1 -0.5
v -0.5 0 0.5
v 0.5 0 0.5
v -0.5 0 -0.5
v 0.5 0 -0.5
v -0.5 1 0.5
v 0.5 1 0.5
v -0.5 1 -0.5
v 0.5 1 -0.5

# faces
f 3/3/1 2/3/1 1/3/1
f 4/3/1 2/3/1 3/3/1
f 5/3/1 2/3/1 4/3/1
f 6/3/1 2/3/1 5/3/1
f 7/2/1 4/2/1 3/2/1
f 8/1/1 5/1/1 4/1/1
f 8/2/1 4/2/1 7/2/1
f 9/2/1 6/2/1 5/2/1
f 9/1/1 5/1/1 8/1/1
f 10/2/1 6/2/1 9/2/1
f 11/2/1 6/2/1 10/2/1
f 12/2/1 6/2/1 11/2/1
f 13/2/1 7/2/1 3/2/1
f 14/1/1 8/1/1 7/1/1
f 14/2/1 7/2/1 13/2/1
f 14/1/1 9/1/1 8/1/1
f 14/1/1 10/1/1 9/1/1
f 15/2/1 11/2/1 10/2/1
f 15/1/1 10/1/1 14/1/1
f 16/1/1 12/1/1 11/1/1
f 16/2/1 11/2/1 15/2/1
f 17/2/1 6/2/1 12/2/1
f 17/1/1 12/1/1 16/1/1
f 18/2/1 6/2/1 17/2/1
f 19/1/1 16/1/1 15/1/1
f 19/1/1 15/1/1 14/1/1
f 19/1/1 18/1/1 17/1/1
f 19/1/1 17/1/1 16/1/1
f 19/1/1 14/1/1 13/1/1
f 20/1/1 18/1/1 19/1/1
f 21/3/2 22/3/2 23/3/2
f 23/3/2 22/3/2 24/3/2
f 23/2/2 24/2/2 25/2/2
f 25/2/2 24/2/2 26/2/2
f 26/2/2 24/2/2 27/2/2
f 27/2/2 24/2/2 28/2/2
f 28/2/2 24/2/2 29/2/2
f 29/2/2 24/2/2 30/2/2
f 23/2/2 25/2/2 31/2/2
f 25/1/2 26/1/2 32/1/2
f 31/2/2 25/2/2 32/2/2
f 26/2/2 27/2/2 33/2/2
f 32/1/2 26/1/2 33/1/2
f 27/1/2 28/1/2 34/1/2
f 33/2/2 27/2/2 34/2/2
f 28/2/2 29/2/2 35/2/2
f 29/1/2 30/1/2 36/1/2
f 35/2/2 29/2/2 36/2/2
f 30/2/2 24/2/2 37/2/2
f 36/1/2 30/1/2 37/1/2
f 37/2/2 24/2/2 38/2/2
f 23/2/2 31/2/2 39/2/2
f 31/1/2 32/1/2 40/1/2
f 39/2/2 31/2/2 40/2/2
f 32/1/2 33/1/2 40/1/2
f 33/1/2 34/1/2 40/1/2
f 34/1/2 28/1/2 41/1/2
f 40/1/2 34/1/2 41/1/2
f 28/2/2 35/2/2 41/2/2
f 35/1/2 36/1/2 42/1/2
f 41/2/2 35/2/2 42/2/2
f 37/1/2 38/1/2 42/1/2
f 36/1/2 37/1/2 42/1/2
f 40/1/2 41/1/2 43/1/2
f 39/1/2 40/1/2 43/1/2
f 41/1/2 42/1/2 43/1/2
f 42/1/2 38/1/2 44/1/2
f 43/1/2 42/1/2 44/1/2
f 49/2/3 47/2/3 46/2/3
f 50/1/3 48/1/3 47/1/3
f 50/2/3 47/2/3 49/2/3
f 51/2/3 49/2/3 46/2/3
f 51/1/3 50/1/3 49/1/3
f 52/1/3 48/1/3 50/1/3
f 52/1/3 50/1/3 51/1/3
f 53/2/3 52/2/3 51/2/3
f 54/1/3 48/1/3 52/1/3
f 54/2/3 52/2/3 53/2/3
f 55/2/3 51/2/3 46/2/3
f 55/2/3 53/2/3 51/2/3
f 56/1/3 54/1/3 53/1/3
f 56/2/3 53/2/3 55/2/3
f 57/2/3 55/2/3 46/2/3
f 57/1/3 56/1/3 55/1/3
f 58/1/3 54/1/3 56/1/3
f 58/1/3 56/1/3 57/1/3
f 59/2/3 58/2/3 57/2/3
f 59/1/3 54/1/3 58/1/3
f 60/1/3 48/1/3 54/1/3
f 60/1/3 54/1/3 59/1/3
f 61/3/3 46/3/3 45/3/3
f 62/2/3 59/2/3 57/2/3
f 62/3/3 46/3/3 61/3/3
f 62/2/3 57/2/3 46/2/3
f 62/2/3 60/2/3 59/2/3
f 63/1/3 48/1/3 60/1/3
f 63/2/3 60/2/3 62/2/3
f 64/1/3 48/1/3 63/1/3
f 66/2/4 67/2/4 69/2/4
f 67/1/4 68/1/4 70/1/4
f 69/2/4 67/2/4 70/2/4
f 66/2/4 69/2/4 71/2/4
f 69/1/4 70/1/4 71/1/4
f 70/1/4 68/1/4 72/1/4
f 71/1/4 70/1/4 72/1/4
f 71/2/4 72/2/4 73/2/4
f 72/1/4 68/1/4 73/1/4
f 73/1/4 68/1/4 74/1/4
f 66/2/4 71/2/4 75/2/4
f 71/2/4 73/2/4 75/2/4
f 73/2/4 74/2/4 75/2/4
f 74/1/4 68/1/4 76/1/4
f 75/2/4 74/2/4 76/2/4
f 66/2/4 75/2/4 77/2/4
f 75/1/4 76/1/4 77/1/4
f 77/1/4 76/1/4 78/1/4
f 77/2/4 78/2/4 79/2/4
f 78/1/4 76/1/4 79/1/4
f 76/1/4 68/1/4 80/1/4
f 79/1/4 76/1/4 80/1/4
f 77/2/4 79/2/4 81/2/4
f 66/2/4 77/2/4 81/2/4
f 79/2/4 80/2/4 81/2/4
f 80/1/4 68/1/4 82/1/4
f 81/2/4 80/2/4 82/2/4
f 66/2/4 81/2/4 83/2/4
f 81/1/4 82/1/4 83/1/4
f 83/1/4 82/1/4 84/1/4
f 65/3/4 66/3/4 85/3/4
f 66/2/4 83/2/4 86/2/4
f 85/3/4 66/3/4 86/3/4
f 83/2/4 84/2/4 86/2/4
f 84/1/4 82/1/4 87/1/4
f 86/2/4 84/2/4 87/2/4
f 82/1/4 68/1/4 88/1/4
f 87/1/4 82/1/4 88/1/4
f 91/3/5 90/3/5 89/3/5
f 92/3/5 90/3/5 91/3/5
f 93/1/6 94/1/6 95/1/6
f 95/1/6 94/1/6 96/1/6
