# MagicaVoxel @ Ephtracy

# group
o 

# material
mtllib glider.mtl
usemtl palette

# normals
vn -1 0 0
vn 1 0 0
vn 0 0 1
vn 0 0 -1
vn 0 -1 0
vn 0 1 0

# texcoords
vt 0.857422 0.5
vt 0.923828 0.5
vt 0.958984 0.5

# verts
v -1 1.9 -0.7
v -1 1.9 -1.1
v -1 2 -0.7
v -1 2 -1.1
v -0.9 1.9 -0.5
v -0.9 1.9 -0.7
v -0.9 2 -0.5
v -0.9 2 -0.7
v -0.8 1.9 -0.3
v -0.8 1.9 -0.5
v -0.8 2 -0.3
v -0.8 2 -0.5
v -0.7 1.9 -0.1
v -0.7 1.9 -0.3
v -0.7 2 -0.1
v -0.7 2 -0.3
v -0.6 1.9 0.1
v -0.6 1.9 -0.1
v -0.6 2 0.1
v -0.6 2 -0.1
v -0.5 1.9 0.3
v -0.5 1.9 0.1
v -0.5 2 0.3
v -0.5 2 0.1
v -0.4 1.9 0.5
v -0.4 1.9 0.3
v -0.4 2 0.5
v -0.4 2 0.3
v -0.3 1.9 0.7
v -0.3 1.9 0.5
v -0.3 2 0.7
v -0.3 2 0.5
v -0.2 1.9 0.9
v -0.2 1.9 0.7
v -0.2 2 0.9
v -0.2 2 0.7
v -0.1 1.9 1
v -0.1 1.9 0.9
v -0.1 2 1
v -0.1 2 0.9
v 0.1 1.9 1
v 0.1 1.9 0.9
v 0.1 2 1
v 0.1 2 0.9
v 0.2 1.9 0.9
v 0.2 1.9 0.7
v 0.2 2 0.9
v 0.2 2 0.7
v 0.3 1.9 0.7
v 0.3 1.9 0.5
v 0.3 2 0.7
v 0.3 2 0.5
v 0.4 1.9 0.5
v 0.4 1.9 0.3
v 0.4 2 0.5
v 0.4 2 0.3
v 0.5 1.9 0.3
v 0.5 1.9 0.1
v 0.5 2 0.3
v 0.5 2 0.1
v 0.6 1.9 0.1
v 0.6 1.9 -0.1
v 0.6 2 0.1
v 0.6 2 -0.1
v 0.7 1.9 -0.1
v 0.7 1.9 -0.3
v 0.7 2 -0.1
v 0.7 2 -0.3
v 0.8 1.9 -0.3
v 0.8 1.9 -0.5
v 0.8 2 -0.3
v 0.8 2 -0.5
v 0.9 1.9 -0.5
v 0.9 1.9 -0.7
v 0.9 2 -0.5
v 0.9 2 -0.7
v 1 1.9 -0.7
v 1 1.9 -1.1
v 1 2 -0.7
v 1 2 -1.1
v -0.1 1.9 1
v -0.1 2 1
v 0.1 1.9 1
v 0.1 2 1
v -0.2 1.9 0.9
v -0.2 2 0.9
v -0.1 1.9 0.9
v -0.1 2 0.9
v 0.1 1.9 0.9
v 0.1 2 0.9
v 0.2 1.9 0.9
v 0.2 2 0.9
v -0.3 1.9 0.7
v -0.3 2 0.7
v -0.2 1.9 0.7
v -0.2 2 0.7
v 0.2 1.9 0.7
v 0.2 2 0.7
v 0.3 1.9 0.7
v 0.3 2 0.7
v -0.4 1.9 0.5
v -0.4 2 0.5
v -0.3 1.9 0.5
v -0.3 2 0.5
v 0.3 1.9 0.5
v 0.3 2 0.5
v 0.4 1.9 0.5
v 0.4 2 0.5
v -0.5 1.9 0.3
v -0.5 2 0.3
v -0.4 1.9 0.3
v -0.4 2 0.3
v 0.4 1.9 0.3
v 0.4 2 0.3
v 0.5 1.9 0.3
v 0.5 2 0.3
v -0.6 1.9 0.1
v -0.6 2 0.1
v -0.5 1.9 0.1
v -0.5 2 0.1
v 0.5 1.9 0.1
v 0.5 2 0.1
v 0.6 1.9 0.1
v 0.6 2 0.1
v -0.7 1.9 -0.1
v -0.7 2 -0.1
v -0.6 1.9 -0.1
v -0.6 2 -0.1
v 0.6 1.9 -0.1
v 0.6 2 -0.1
v 0.7 1.9 -0.1
v 0.7 2 -0.1
v -0.8 1.9 -0.3
v -0.8 2 -0.3
v -0.7 1.9 -0.3
v -0.7 2 -0.3
v 0.7 1.9 -0.3
v 0.7 2 -0.3
v 0.8 1.9 -0.3
v 0.8 2 -0.3
v -0.9 1.9 -0.5
v -0.9 2 -0.5
v -0.8 1.9 -0.5
v -0.8 2 -0.5
v 0.8 1.9 -0.5
v 0.8 2 -0.5
v 0.9 1.9 -0.5
v 0.9 2 -0.5
v -1 1.9 -0.7
v -1 2 -0.7
v -0.9 1.9 -0.7
v -0.9 2 -0.7
v 0.9 1.9 -0.7
v 0.9 2 -0.7
v 1 1.9 -0.7
v 1 2 -0.7
v -1 1.9 -1.1
v -1 2 -1.1
v 1 1.9 -1.1
v 1 2 -1.1
v -0.1 1.9 1
v 0.1 1.9 1
v -0.2 1.9 0.9
v -0.1 1.9 0.9
v 0.1 1.9 0.9
v 0.2 1.9 0.9
v -0.1 1.9 0.8
v 0.1 1.9 0.8
v -0.3 1.9 0.7
v -0.2 1.9 0.7
v 0.2 1.9 0.7
v 0.3 1.9 0.7
v -0.2 1.9 0.6
v -0.1 1.9 0.6
v 0.1 1.9 0.6
v 0.2 1.9 0.6
v -0.4 1.9 0.5
v -0.3 1.9 0.5
v 0.3 1.9 0.5
v 0.4 1.9 0.5
v -0.3 1.9 0.4
v -0.2 1.9 0.4
v 0.2 1.9 0.4
v 0.3 1.9 0.4
v -0.5 1.9 0.3
v -0.4 1.9 0.3
v 0.4 1.9 0.3
v 0.5 1.9 0.3
v -0.4 1.9 0.2
v -0.3 1.9 0.2
v 0.3 1.9 0.2
v 0.4 1.9 0.2
v -0.6 1.9 0.1
v -0.5 1.9 0.1
v 0.5 1.9 0.1
v 0.6 1.9 0.1
v -0.5 1.9 0
v -0.4 1.9 0
v 0.4 1.9 0
v 0.5 1.9 0
v -0.7 1.9 -0.1
v -0.6 1.9 -0.1
v 0.6 1.9 -0.1
v 0.7 1.9 -0.1
v -0.6 1.9 -0.2
v -0.5 1.9 -0.2
v 0.5 1.9 -0.2
v 0.6 1.9 -0.2
v -0.8 1.9 -0.3
v -0.7 1.9 -0.3
v 0.7 1.9 -0.3
v 0.8 1.9 -0.3
v -0.7 1.9 -0.4
v -0.6 1.9 -0.4
v 0.6 1.9 -0.4
v 0.7 1.9 -0.4
v -0.9 1.9 -0.5
v -0.8 1.9 -0.5
v 0.8 1.9 -0.5
v 0.9 1.9 -0.5
v -0.8 1.9 -0.6
v -0.7 1.9 -0.6
v 0.7 1.9 -0.6
v 0.8 1.9 -0.6
v -1 1.9 -0.7
v -0.9 1.9 -0.7
v 0.9 1.9 -0.7
v 1 1.9 -0.7
v -0.9 1.9 -0.8
v -0.8 1.9 -0.8
v 0.8 1.9 -0.8
v 0.9 1.9 -0.8
v -0.9 1.9 -1
v -0.7 1.9 -1
v -0.5 1.9 -1
v -0.3 1.9 -1
v -0.1 1.9 -1
v 0.1 1.9 -1
v 0.3 1.9 -1
v 0.5 1.9 -1
v 0.7 1.9 -1
v 0.9 1.9 -1
v -1 1.9 -1.1
v 1 1.9 -1.1
v -0.1 2 1
v 0.1 2 1
v -0.2 2 0.9
v -0.1 2 0.9
v 0.1 2 0.9
v 0.2 2 0.9
v -0.1 2 0.8
v 0.1 2 0.8
v -0.3 2 0.7
v -0.2 2 0.7
v 0.2 2 0.7
v 0.3 2 0.7
v -0.2 2 0.6
v -0.1 2 0.6
v 0.1 2 0.6
v 0.2 2 0.6
v -0.4 2 0.5
v -0.3 2 0.5
v 0.3 2 0.5
v 0.4 2 0.5
v -0.3 2 0.4
v -0.2 2 0.4
v 0.2 2 0.4
v 0.3 2 0.4
v -0.5 2 0.3
v -0.4 2 0.3
v 0.4 2 0.3
v 0.5 2 0.3
v -0.4 2 0.2
v -0.3 2 0.2
v 0.3 2 0.2
v 0.4 2 0.2
v -0.6 2 0.1
v -0.5 2 0.1
v 0.5 2 0.1
v 0.6 2 0.1
v -0.5 2 0
v -0.4 2 0
v 0.4 2 0
v 0.5 2 0
v -0.7 2 -0.1
v -0.6 2 -0.1
v 0.6 2 -0.1
v 0.7 2 -0.1
v -0.6 2 -0.2
v -0.5 2 -0.2
v 0.5 2 -0.2
v 0.6 2 -0.2
v -0.8 2 -0.3
v -0.7 2 -0.3
v 0.7 2 -0.3
v 0.8 2 -0.3
v -0.7 2 -0.4
v -0.6 2 -0.4
v 0.6 2 -0.4
v 0.7 2 -0.4
v -0.9 2 -0.5
v -0.8 2 -0.5
v 0.8 2 -0.5
v 0.9 2 -0.5
v -0.8 2 -0.6
v -0.7 2 -0.6
v 0.7 2 -0.6
v 0.8 2 -0.6
v -1 2 -0.7
v -0.9 2 -0.7
v 0.9 2 -0.7
v 1 2 -0.7
v -0.9 2 -0.8
v -0.8 2 -0.8
v 0.8 2 -0.8
v 0.9 2 -0.8
v -0.9 2 -1
v -0.7 2 -1
v -0.5 2 -1
v -0.3 2 -1
v -0.1 2 -1
v 0.1 2 -1
v 0.3 2 -1
v 0.5 2 -1
v 0.7 2 -1
v 0.9 2 -1
v -1 2 -1.1
v 1 2 -1.1

# faces
f 3/1/1 2/1/1 1/1/1
f 4/1/1 2/1/1 3/1/1
f 7/1/1 6/1/1 5/1/1
f 8/1/1 6/1/1 7/1/1
f 11/1/1 10/1/1 9/1/1
f 12/1/1 10/1/1 11/1/1
f 15/1/1 14/1/1 13/1/1
f 16/1/1 14/1/1 15/1/1
f 19/1/1 18/1/1 17/1/1
f 20/1/1 18/1/1 19/1/1
f 23/1/1 22/1/1 21/1/1
f 24/1/1 22/1/1 23/1/1
f 27/1/1 26/1/1 25/1/1
f 28/1/1 26/1/1 27/1/1
f 31/1/1 30/1/1 29/1/1
f 32/1/1 30/1/1 31/1/1
f 35/1/1 34/1/1 33/1/1
f 36/1/1 34/1/1 35/1/1
f 39/1/1 38/1/1 37/1/1
f 40/1/1 38/1/1 39/1/1
f 41/1/2 42/1/2 43/1/2
f 43/1/2 42/1/2 44/1/2
f 45/1/2 46/1/2 47/1/2
f 47/1/2 46/1/2 48/1/2
f 49/1/2 50/1/2 51/1/2
f 51/1/2 50/1/2 52/1/2
f 53/1/2 54/1/2 55/1/2
f 55/1/2 54/1/2 56/1/2
f 57/1/2 58/1/2 59/1/2
f 59/1/2 58/1/2 60/1/2
f 61/1/2 62/1/2 63/1/2
f 63/1/2 62/1/2 64/1/2
f 65/1/2 66/1/2 67/1/2
f 67/1/2 66/1/2 68/1/2
f 69/1/2 70/1/2 71/1/2
f 71/1/2 70/1/2 72/1/2
f 73/1/2 74/1/2 75/1/2
f 75/1/2 74/1/2 76/1/2
f 77/1/2 78/1/2 79/1/2
f 79/1/2 78/1/2 80/1/2
f 83/1/3 82/1/3 81/1/3
f 84/1/3 82/1/3 83/1/3
f 87/1/3 86/1/3 85/1/3
f 88/1/3 86/1/3 87/1/3
f 91/1/3 90/1/3 89/1/3
f 92/1/3 90/1/3 91/1/3
f 95/1/3 94/1/3 93/1/3
f 96/1/3 94/1/3 95/1/3
f 99/1/3 98/1/3 97/1/3
f 100/1/3 98/1/3 99/1/3
f 103/1/3 102/1/3 101/1/3
f 104/1/3 102/1/3 103/1/3
f 107/1/3 106/1/3 105/1/3
f 108/1/3 106/1/3 107/1/3
f 111/1/3 110/1/3 109/1/3
f 112/1/3 110/1/3 111/1/3
f 115/1/3 114/1/3 113/1/3
f 116/1/3 114/1/3 115/1/3
f 119/1/3 118/1/3 117/1/3
f 120/1/3 118/1/3 119/1/3
f 123/1/3 122/1/3 121/1/3
f 124/1/3 122/1/3 123/1/3
f 127/1/3 126/1/3 125/1/3
f 128/1/3 126/1/3 127/1/3
f 131/1/3 130/1/3 129/1/3
f 132/1/3 130/1/3 131/1/3
f 135/1/3 134/1/3 133/1/3
f 136/1/3 134/1/3 135/1/3
f 139/1/3 138/1/3 137/1/3
f 140/1/3 138/1/3 139/1/3
f 143/1/3 142/1/3 141/1/3
f 144/1/3 142/1/3 143/1/3
f 147/1/3 146/1/3 145/1/3
f 148/1/3 146/1/3 147/1/3
f 151/1/3 150/1/3 149/1/3
f 152/1/3 150/1/3 151/1/3
f 155/1/3 154/1/3 153/1/3
f 156/1/3 154/1/3 155/1/3
f 157/1/4 158/1/4 159/1/4
f 159/1/4 158/1/4 160/1/4
f 164/1/5 162/1/5 161/1/5
f 165/1/5 162/1/5 164/1/5
f 167/1/5 164/1/5 163/1/5
f 167/1/5 166/1/5 165/1/5
f 167/1/5 165/1/5 164/1/5
f 168/1/5 166/1/5 167/1/5
f 170/1/5 167/1/5 163/1/5
f 171/1/5 166/1/5 168/1/5
f 173/1/5 170/1/5 169/1/5
f 173/1/5 167/1/5 170/1/5
f 174/2/5 168/2/5 167/2/5
f 174/1/5 167/1/5 173/1/5
f 175/1/5 172/1/5 171/1/5
f 175/2/5 168/2/5 174/2/5
f 175/1/5 171/1/5 168/1/5
f 176/1/5 172/1/5 175/1/5
f 178/1/5 173/1/5 169/1/5
f 179/1/5 172/1/5 176/1/5
f 181/1/5 178/1/5 177/1/5
f 181/1/5 173/1/5 178/1/5
f 182/3/5 174/3/5 173/3/5
f 182/1/5 173/1/5 181/1/5
f 183/1/5 180/1/5 179/1/5
f 183/3/5 176/3/5 175/3/5
f 183/1/5 179/1/5 176/1/5
f 184/1/5 180/1/5 183/1/5
f 186/1/5 181/1/5 177/1/5
f 187/1/5 180/1/5 184/1/5
f 189/1/5 186/1/5 185/1/5
f 189/1/5 181/1/5 186/1/5
f 190/3/5 182/3/5 181/3/5
f 190/1/5 181/1/5 189/1/5
f 191/1/5 188/1/5 187/1/5
f 191/3/5 184/3/5 183/3/5
f 191/1/5 187/1/5 184/1/5
f 192/1/5 188/1/5 191/1/5
f 194/1/5 189/1/5 185/1/5
f 195/1/5 188/1/5 192/1/5
f 197/1/5 194/1/5 193/1/5
f 197/1/5 189/1/5 194/1/5
f 198/2/5 190/2/5 189/2/5
f 198/1/5 189/1/5 197/1/5
f 199/1/5 196/1/5 195/1/5
f 199/2/5 192/2/5 191/2/5
f 199/1/5 195/1/5 192/1/5
f 200/1/5 196/1/5 199/1/5
f 202/1/5 197/1/5 193/1/5
f 203/1/5 196/1/5 200/1/5
f 205/1/5 202/1/5 201/1/5
f 205/1/5 197/1/5 202/1/5
f 206/2/5 198/2/5 197/2/5
f 206/1/5 197/1/5 205/1/5
f 207/1/5 204/1/5 203/1/5
f 207/2/5 200/2/5 199/2/5
f 207/1/5 203/1/5 200/1/5
f 208/1/5 204/1/5 207/1/5
f 210/1/5 205/1/5 201/1/5
f 211/1/5 204/1/5 208/1/5
f 213/1/5 210/1/5 209/1/5
f 213/1/5 205/1/5 210/1/5
f 214/3/5 206/3/5 205/3/5
f 214/1/5 205/1/5 213/1/5
f 215/1/5 212/1/5 211/1/5
f 215/3/5 208/3/5 207/3/5
f 215/1/5 211/1/5 208/1/5
f 216/1/5 212/1/5 215/1/5
f 218/1/5 213/1/5 209/1/5
f 219/1/5 212/1/5 216/1/5
f 221/1/5 218/1/5 217/1/5
f 221/1/5 213/1/5 218/1/5
f 222/3/5 214/3/5 213/3/5
f 222/1/5 213/1/5 221/1/5
f 223/1/5 220/1/5 219/1/5
f 223/3/5 216/3/5 215/3/5
f 223/1/5 219/1/5 216/1/5
f 224/1/5 220/1/5 223/1/5
f 226/1/5 221/1/5 217/1/5
f 227/1/5 220/1/5 224/1/5
f 229/1/5 226/1/5 225/1/5
f 229/1/5 221/1/5 226/1/5
f 230/2/5 222/2/5 221/2/5
f 230/1/5 221/1/5 229/1/5
f 231/1/5 228/1/5 227/1/5
f 231/2/5 224/2/5 223/2/5
f 231/1/5 227/1/5 224/1/5
f 232/1/5 228/1/5 231/1/5
f 233/1/5 229/1/5 225/1/5
f 233/2/5 230/2/5 229/2/5
f 234/3/5 214/3/5 222/3/5
f 234/2/5 230/2/5 233/2/5
f 234/2/5 222/2/5 230/2/5
f 235/2/5 198/2/5 206/2/5
f 235/3/5 214/3/5 234/3/5
f 235/3/5 206/3/5 214/3/5
f 236/3/5 182/3/5 190/3/5
f 236/2/5 198/2/5 235/2/5
f 236/2/5 190/2/5 198/2/5
f 237/3/5 174/3/5 182/3/5
f 237/3/5 182/3/5 236/3/5
f 237/2/5 175/2/5 174/2/5
f 238/3/5 183/3/5 175/3/5
f 238/2/5 175/2/5 237/2/5
f 238/3/5 191/3/5 183/3/5
f 239/2/5 199/2/5 191/2/5
f 239/3/5 191/3/5 238/3/5
f 239/2/5 207/2/5 199/2/5
f 240/3/5 223/3/5 215/3/5
f 240/2/5 207/2/5 239/2/5
f 240/3/5 215/3/5 207/3/5
f 241/2/5 232/2/5 231/2/5
f 241/3/5 223/3/5 240/3/5
f 241/2/5 231/2/5 223/2/5
f 242/1/5 228/1/5 232/1/5
f 242/2/5 232/2/5 241/2/5
f 243/1/5 235/1/5 234/1/5
f 243/1/5 236/1/5 235/1/5
f 243/1/5 242/1/5 241/1/5
f 243/1/5 239/1/5 238/1/5
f 243/1/5 241/1/5 240/1/5
f 243/1/5 240/1/5 239/1/5
f 243/1/5 233/1/5 225/1/5
f 243/1/5 238/1/5 237/1/5
f 243/1/5 237/1/5 236/1/5
f 243/1/5 234/1/5 233/1/5
f 244/1/5 228/1/5 242/1/5
f 244/1/5 242/1/5 243/1/5
f 245/1/6 246/1/6 248/1/6
f 248/1/6 246/1/6 249/1/6
f 247/1/6 248/1/6 251/1/6
f 249/1/6 250/1/6 251/1/6
f 248/1/6 249/1/6 251/1/6
f 251/1/6 250/1/6 252/1/6
f 247/1/6 251/1/6 254/1/6
f 252/1/6 250/1/6 255/1/6
f 253/1/6 254/1/6 257/1/6
f 254/1/6 251/1/6 257/1/6
f 251/2/6 252/2/6 258/2/6
f 257/1/6 251/1/6 258/1/6
f 255/1/6 256/1/6 259/1/6
f 258/2/6 252/2/6 259/2/6
f 252/1/6 255/1/6 259/1/6
f 259/1/6 256/1/6 260/1/6
f 253/1/6 257/1/6 262/1/6
f 260/1/6 256/1/6 263/1/6
f 261/1/6 262/1/6 265/1/6
f 262/1/6 257/1/6 265/1/6
f 257/3/6 258/3/6 266/3/6
f 265/1/6 257/1/6 266/1/6
f 263/1/6 264/1/6 267/1/6
f 259/3/6 260/3/6 267/3/6
f 260/1/6 263/1/6 267/1/6
f 267/1/6 264/1/6 268/1/6
f 261/1/6 265/1/6 270/1/6
f 268/1/6 264/1/6 271/1/6
f 269/1/6 270/1/6 273/1/6
f 270/1/6 265/1/6 273/1/6
f 265/3/6 266/3/6 274/3/6
f 273/1/6 265/1/6 274/1/6
f 271/1/6 272/1/6 275/1/6
f 267/3/6 268/3/6 275/3/6
f 268/1/6 271/1/6 275/1/6
f 275/1/6 272/1/6 276/1/6
f 269/1/6 273/1/6 278/1/6
f 276/1/6 272/1/6 279/1/6
f 277/1/6 278/1/6 281/1/6
f 278/1/6 273/1/6 281/1/6
f 273/2/6 274/2/6 282/2/6
f 281/1/6 273/1/6 282/1/6
f 279/1/6 280/1/6 283/1/6
f 275/2/6 276/2/6 283/2/6
f 276/1/6 279/1/6 283/1/6
f 283/1/6 280/1/6 284/1/6
f 277/1/6 281/1/6 286/1/6
f 284/1/6 280/1/6 287/1/6
f 285/1/6 286/1/6 289/1/6
f 286/1/6 281/1/6 289/1/6
f 281/2/6 282/2/6 290/2/6
f 289/1/6 281/1/6 290/1/6
f 287/1/6 288/1/6 291/1/6
f 283/2/6 284/2/6 291/2/6
f 284/1/6 287/1/6 291/1/6
f 291/1/6 288/1/6 292/1/6
f 285/1/6 289/1/6 294/1/6
f 292/1/6 288/1/6 295/1/6
f 293/1/6 294/1/6 297/1/6
f 294/1/6 289/1/6 297/1/6
f 289/3/6 290/3/6 298/3/6
f 297/1/6 289/1/6 298/1/6
f 295/1/6 296/1/6 299/1/6
f 291/3/6 292/3/6 299/3/6
f 292/1/6 295/1/6 299/1/6
f 299/1/6 296/1/6 300/1/6
f 293/1/6 297/1/6 302/1/6
f 300/1/6 296/1/6 303/1/6
f 301/1/6 302/1/6 305/1/6
f 302/1/6 297/1/6 305/1/6
f 297/3/6 298/3/6 306/3/6
f 305/1/6 297/1/6 306/1/6
f 303/1/6 304/1/6 307/1/6
f 299/3/6 300/3/6 307/3/6
f 300/1/6 303/1/6 307/1/6
f 307/1/6 304/1/6 308/1/6
f 301/1/6 305/1/6 310/1/6
f 308/1/6 304/1/6 311/1/6
f 309/1/6 310/1/6 313/1/6
f 310/1/6 305/1/6 313/1/6
f 305/2/6 306/2/6 314/2/6
f 313/1/6 305/1/6 314/1/6
f 311/1/6 312/1/6 315/1/6
f 307/2/6 308/2/6 315/2/6
f 308/1/6 311/1/6 315/1/6
f 315/1/6 312/1/6 316/1/6
f 309/1/6 313/1/6 317/1/6
f 313/2/6 314/2/6 317/2/6
f 306/3/6 298/3/6 318/3/6
f 317/2/6 314/2/6 318/2/6
f 314/2/6 306/2/6 318/2/6
f 290/2/6 282/2/6 319/2/6
f 318/3/6 298/3/6 319/3/6
f 298/3/6 290/3/6 319/3/6
f 274/3/6 266/3/6 320/3/6
f 319/2/6 282/2/6 320/2/6
f 282/2/6 274/2/6 320/2/6
f 266/3/6 258/3/6 321/3/6
f 320/3/6 266/3/6 321/3/6
f 258/2/6 259/2/6 321/2/6
f 259/3/6 267/3/6 322/3/6
f 321/2/6 259/2/6 322/2/6
f 267/3/6 275/3/6 322/3/6
f 275/2/6 283/2/6 323/2/6
f 322/3/6 275/3/6 323/3/6
f 283/2/6 291/2/6 323/2/6
f 299/3/6 307/3/6 324/3/6
f 323/2/6 291/2/6 324/2/6
f 291/3/6 299/3/6 324/3/6
f 315/2/6 316/2/6 325/2/6
f 324/3/6 307/3/6 325/3/6
f 307/2/6 315/2/6 325/2/6
f 316/1/6 312/1/6 326/1/6
f 325/2/6 316/2/6 326/2/6
f 318/1/6 319/1/6 327/1/6
f 319/1/6 320/1/6 327/1/6
f 325/1/6 326/1/6 327/1/6
f 322/1/6 323/1/6 327/1/6
f 324/1/6 325/1/6 327/1/6
f 323/1/6 324/1/6 327/1/6
f 309/1/6 317/1/6 327/1/6
f 321/1/6 322/1/6 327/1/6
f 320/1/6 321/1/6 327/1/6
f 317/1/6 318/1/6 327/1/6
f 326/1/6 312/1/6 328/1/6
f 327/1/6 326/1/6 328/1/6
