# MagicaVoxel @ Ephtracy

# group
o 

# material
mtllib Missilie.mtl
usemtl palette

# normals
vn -1 0 0
vn 1 0 0
vn 0 0 1
vn 0 0 -1
vn 0 -1 0
vn 0 1 0

# texcoords
vt 0.841797 0.5
vt 0.955078 0.5
vt 0.994141 0.5

# verts
v -1.3 0 -1.19209e-07
v -1.3 0 -0.7
v -1.3 0.8 -1.19209e-07
v -1.3 0.8 -0.7
v -0.8 0.3 1
v -0.8 0.3 0.8
v -0.8 0.8 1
v -0.8 0.8 0.8
v -0.7 0 0.8
v -0.7 0 -1.19209e-07
v -0.7 0 -0.7
v -0.7 0 -2
v -0.7 0.3 0.8
v -0.7 0.8 0.8
v -0.7 0.8 -1.19209e-07
v -0.7 0.8 -0.7
v -0.7 0.8 -2
v -0.4 0 1
v -0.4 0 0.8
v -0.4 0.3 1
v -0.4 0.3 0.8
v -0.4 0.8 1
v -0.4 0.8 0.8
v -0.4 0.8 -2
v -0.4 1.2 1
v -0.4 1.2 0.8
v -0.4 1.2 -2
v 0.5 0 1
v 0.5 0 0.8
v 0.5 0.3 1
v 0.5 0.3 0.8
v 0.5 0.8 1
v 0.5 0.8 0.8
v 0.5 0.8 -2
v 0.5 1.2 1
v 0.5 1.2 0.8
v 0.5 1.2 -2
v 0.8 0 0.8
v 0.8 0 -0.1
v 0.8 0 -0.7
v 0.8 0 -2
v 0.8 0.3 0.8
v 0.8 0.8 0.8
v 0.8 0.8 -0.1
v 0.8 0.8 -0.7
v 0.8 0.8 -2
v 0.9 0.3 1
v 0.9 0.3 0.8
v 0.9 0.8 1
v 0.9 0.8 0.8
v 1.5 0 -0.1
v 1.5 0 -0.7
v 1.5 0.8 -0.1
v 1.5 0.8 -0.7
v -0.8 0.3 1
v -0.8 0.8 1
v -0.4 0 1
v -0.4 0.3 1
v -0.4 0.8 1
v -0.4 1.2 1
v 0.5 0 1
v 0.5 0.3 1
v 0.5 0.8 1
v 0.5 1.2 1
v 0.9 0.3 1
v 0.9 0.8 1
v -0.7 0 0.8
v -0.7 0.3 0.8
v -0.4 0 0.8
v -0.4 0.3 0.8
v 0.5 0 0.8
v 0.5 0.3 0.8
v 0.8 0 0.8
v 0.8 0.3 0.8
v -1.3 0 -1.19209e-07
v -1.3 0.8 -1.19209e-07
v -0.7 0 -1.19209e-07
v -0.7 0.8 -1.19209e-07
v 0.8 0 -0.1
v 0.8 0.8 -0.1
v 1.5 0 -0.1
v 1.5 0.8 -0.1
v -0.8 0.3 0.8
v -0.8 0.8 0.8
v -0.7 0.3 0.8
v -0.7 0.8 0.8
v 0.8 0.3 0.8
v 0.8 0.8 0.8
v 0.9 0.3 0.8
v 0.9 0.8 0.8
v -1.3 0 -0.7
v -1.3 0.8 -0.7
v -0.7 0 -0.7
v -0.7 0.8 -0.7
v 0.8 0 -0.7
v 0.8 0.8 -0.7
v 1.5 0 -0.7
v 1.5 0.8 -0.7
v -0.7 0 -2
v -0.7 0.8 -2
v -0.4 0.8 -2
v -0.4 1.2 -2
v 0.5 0.8 -2
v 0.5 1.2 -2
v 0.8 0 -2
v 0.8 0.8 -2
v -0.4 0 1
v 0.5 0 1
v -0.7 0 0.8
v -0.4 0 0.8
v 0.5 0 0.8
v 0.8 0 0.8
v -1.3 0 -1.19209e-07
v -0.7 0 -1.19209e-07
v 0.8 0 -0.1
v 1.5 0 -0.1
v -1.3 0 -0.7
v -0.7 0 -0.7
v 0.8 0 -0.7
v 1.5 0 -0.7
v -0.7 0 -2
v 0.8 0 -2
v -0.8 0.3 1
v -0.4 0.3 1
v 0.5 0.3 1
v 0.9 0.3 1
v -0.8 0.3 0.8
v -0.7 0.3 0.8
v -0.4 0.3 0.8
v 0.5 0.3 0.8
v 0.8 0.3 0.8
v 0.9 0.3 0.8
v -0.8 0.8 1
v -0.4 0.8 1
v 0.5 0.8 1
v 0.9 0.8 1
v -0.8 0.8 0.8
v -0.7 0.8 0.8
v -0.4 0.8 0.8
v 0.5 0.8 0.8
v 0.8 0.8 0.8
v 0.9 0.8 0.8
v -1.3 0.8 -1.19209e-07
v -0.7 0.8 -1.19209e-07
v 0.8 0.8 -0.1
v 1.5 0.8 -0.1
v -1.3 0.8 -0.7
v -0.7 0.8 -0.7
v 0.8 0.8 -0.7
v 1.5 0.8 -0.7
v -0.7 0.8 -2
v -0.4 0.8 -2
v 0.5 0.8 -2
v 0.8 0.8 -2
v -0.4 1.2 1
v 0.5 1.2 1
v -0.4 1.2 0.8
v 0.5 1.2 0.8
v -0.4 1.2 -2
v 0.5 1.2 -2

# faces
f 3/2/1 2/2/1 1/2/1
f 4/2/1 2/2/1 3/2/1
f 7/1/1 6/1/1 5/1/1
f 8/1/1 6/1/1 7/1/1
f 13/3/1 10/3/1 9/3/1
f 14/3/1 10/3/1 13/3/1
f 15/3/1 10/3/1 14/3/1
f 16/3/1 12/3/1 11/3/1
f 17/3/1 12/3/1 16/3/1
f 20/1/1 19/1/1 18/1/1
f 21/1/1 19/1/1 20/1/1
f 25/1/1 23/1/1 22/1/1
f 26/3/1 24/3/1 23/3/1
f 26/1/1 23/1/1 25/1/1
f 27/3/1 24/3/1 26/3/1
f 28/1/2 29/1/2 30/1/2
f 30/1/2 29/1/2 31/1/2
f 32/1/2 33/1/2 35/1/2
f 33/3/2 34/3/2 36/3/2
f 35/1/2 33/1/2 36/1/2
f 36/3/2 34/3/2 37/3/2
f 38/3/2 39/3/2 42/3/2
f 42/3/2 39/3/2 43/3/2
f 43/3/2 39/3/2 44/3/2
f 40/3/2 41/3/2 45/3/2
f 45/3/2 41/3/2 46/3/2
f 47/1/2 48/1/2 49/1/2
f 49/1/2 48/1/2 50/1/2
f 51/2/2 52/2/2 53/2/2
f 53/2/2 52/2/2 54/2/2
f 58/1/3 56/1/3 55/1/3
f 59/1/3 56/1/3 58/1/3
f 61/1/3 58/1/3 57/1/3
f 61/1/3 60/1/3 59/1/3
f 61/1/3 59/1/3 58/1/3
f 62/1/3 60/1/3 61/1/3
f 63/1/3 60/1/3 62/1/3
f 64/1/3 60/1/3 63/1/3
f 65/1/3 63/1/3 62/1/3
f 66/1/3 63/1/3 65/1/3
f 69/3/3 68/3/3 67/3/3
f 70/3/3 68/3/3 69/3/3
f 73/3/3 72/3/3 71/3/3
f 74/3/3 72/3/3 73/3/3
f 77/2/3 76/2/3 75/2/3
f 78/2/3 76/2/3 77/2/3
f 81/2/3 80/2/3 79/2/3
f 82/2/3 80/2/3 81/2/3
f 83/1/4 84/1/4 85/1/4
f 85/1/4 84/1/4 86/1/4
f 87/1/4 88/1/4 89/1/4
f 89/1/4 88/1/4 90/1/4
f 91/2/4 92/2/4 93/2/4
f 93/2/4 92/2/4 94/2/4
f 95/2/4 96/2/4 97/2/4
f 97/2/4 96/2/4 98/2/4
f 99/3/4 100/3/4 101/3/4
f 99/3/4 101/3/4 103/3/4
f 101/3/4 102/3/4 103/3/4
f 103/3/4 102/3/4 104/3/4
f 99/3/4 103/3/4 105/3/4
f 105/3/4 103/3/4 106/3/4
f 110/1/5 108/1/5 107/1/5
f 111/1/5 108/1/5 110/1/5
f 114/3/5 110/3/5 109/3/5
f 114/3/5 112/3/5 111/3/5
f 114/3/5 111/3/5 110/3/5
f 115/3/5 112/3/5 114/3/5
f 117/2/5 114/2/5 113/2/5
f 118/3/5 115/3/5 114/3/5
f 118/2/5 114/2/5 117/2/5
f 119/2/5 116/2/5 115/2/5
f 119/3/5 115/3/5 118/3/5
f 120/2/5 116/2/5 119/2/5
f 121/3/5 119/3/5 118/3/5
f 122/3/5 119/3/5 121/3/5
f 127/1/5 124/1/5 123/1/5
f 128/1/5 124/1/5 127/1/5
f 129/1/5 124/1/5 128/1/5
f 130/1/5 126/1/5 125/1/5
f 131/1/5 126/1/5 130/1/5
f 132/1/5 126/1/5 131/1/5
f 133/1/6 134/1/6 137/1/6
f 137/1/6 134/1/6 138/1/6
f 138/1/6 134/1/6 139/1/6
f 135/1/6 136/1/6 140/1/6
f 140/1/6 136/1/6 141/1/6
f 141/1/6 136/1/6 142/1/6
f 138/3/6 139/3/6 144/3/6
f 140/3/6 141/3/6 145/3/6
f 143/2/6 144/2/6 147/2/6
f 144/3/6 139/3/6 148/3/6
f 147/2/6 144/2/6 148/2/6
f 145/2/6 146/2/6 149/2/6
f 140/3/6 145/3/6 149/3/6
f 149/2/6 146/2/6 150/2/6
f 148/3/6 139/3/6 151/3/6
f 151/3/6 139/3/6 152/3/6
f 140/3/6 149/3/6 153/3/6
f 153/3/6 149/3/6 154/3/6
f 155/1/6 156/1/6 157/1/6
f 157/1/6 156/1/6 158/1/6
f 157/3/6 158/3/6 159/3/6
f 159/3/6 158/3/6 160/3/6
